<svg viewBox="0 0 521 375" fill="none" xmlns="http://www.w3.org/2000/svg">
<path d="M53.4625 375C35.4887 375 22.0808 370.502 13.2388 361.507C4.42099 352.512 0 337.495 0 316.506V67.4894C0.0241584 44.4932 5.50812 27.4939 16.5002 16.4915C27.4923 5.4891 41.8182 0 59.478 0C77.1378 0 90.8597 4.49768 99.7017 13.493C108.52 22.4884 112.941 37.5048 112.941 58.494V307.486C112.941 330.483 107.457 347.482 96.4645 358.484C85.4724 369.487 71.1465 374.976 53.5109 374.976L53.4625 375ZM55.9509 33.9986C48.9449 33.9986 44.1374 36.3441 41.4558 41.0111C38.7984 45.678 37.4697 52.8356 37.4697 62.5081V299.507C37.4697 315.829 39.3782 326.831 43.2194 332.514C47.0364 338.196 52.472 341.026 59.4538 341.026C65.4451 341.026 69.6003 338.704 71.9437 334.013C74.2629 329.346 75.4467 322.189 75.4467 312.516V75.4933C75.4467 59.1711 73.7073 48.1687 70.2043 42.4861C66.7013 36.8278 61.9663 33.9744 55.975 33.9744L55.9509 33.9986Z" fill="#E4A52C"/>
<path d="M218.319 5.00548H255.789V307.511C255.789 330.507 250.305 347.506 239.313 358.509C228.321 369.511 213.995 375 196.359 375C178.724 375 164.978 370.502 156.136 361.507C147.318 352.512 142.897 337.495 142.897 316.506V5.00548H180.367V299.507C180.367 315.829 182.275 326.831 186.116 332.514C189.933 338.196 195.369 341.026 202.351 341.026C208.342 341.026 212.497 338.704 214.841 334.013C217.16 329.346 218.344 322.189 218.344 312.516V5.00548H218.319Z" fill="#E4A52C"/>
<path d="M368.15 48.9908C368.15 43.671 365.976 39.8262 361.651 37.4807C357.327 35.1593 349.838 33.9744 339.184 33.9744C333.193 33.9744 329.013 36.32 326.694 40.9869C324.351 45.6539 323.191 52.8115 323.191 62.4839V299.483C323.191 315.805 325.1 326.807 328.941 332.49C332.758 338.172 337.686 341.001 343.677 341.001C350.007 341.001 354.573 336.673 357.423 327.992C360.25 319.335 361.989 306.664 362.666 290.004L364.164 231.002H371.145L372.643 291.503C373.32 316.167 369.889 336.262 362.4 351.762C354.911 367.262 343.822 375 329.182 375C314.542 375 303.623 370.502 296.472 361.507C289.297 352.512 285.721 337.495 285.721 316.506V67.4894C285.721 44.4932 290.722 27.4939 300.7 16.4915C310.677 5.4891 323.505 0 339.16 0C364.792 0 377.62 15.5001 377.62 46.5002C377.62 83.1829 374.286 120.18 367.642 157.491H329.69C345.683 123.493 356.071 98.9973 360.902 83.9809C365.734 68.9886 368.15 57.3091 368.15 48.9908Z" fill="#E4A52C"/>
<path d="M483.53 172.991V5.00548H521V369.995H483.53V183.002H441.06V369.995H403.59V5.00548H441.06V172.991H483.53Z" fill="#E4A52C"/>
</svg>
