<svg viewBox="0 0 1884 632" fill="none" xmlns="http://www.w3.org/2000/svg">
<path d="M258.321 623.552H193.514L204.461 183.718H195.187L141.327 581.419H121.979L52.1871 183.718H43.7856L66.515 623.552H0L8.40153 8.44761H71.5002L138.817 406.986H148.09L196.896 8.44761H249.919L258.321 623.552Z" fill="#E4A52C"/>
<path d="M450.998 623.552L429.106 450.83H366.007L355.061 623.552H279.342L371.933 93.5521L335.748 8.44761H419.066L521.732 623.552H450.998ZM386.226 143.26L367.715 433.97H426.63L411.501 311.794L395.5 143.26H386.226Z" fill="#E4A52C"/>
<path d="M681.57 82.626C681.57 73.6548 677.91 67.1969 670.624 63.2524C663.338 59.3427 650.718 57.353 632.764 57.353C622.655 57.353 615.648 61.2975 611.743 69.1517C607.804 77.0408 605.852 89.0839 605.852 105.386V504.762C605.852 532.304 609.059 550.84 615.543 560.37C621.992 569.935 630.254 574.682 640.364 574.682C651.032 574.682 658.736 567.386 663.512 552.76C668.288 538.169 671.216 516.805 672.332 488.74L674.842 389.323H686.625L689.135 491.288C690.25 532.863 684.498 566.688 671.879 592.834C659.259 618.945 640.608 632 615.926 632C591.245 632 572.873 624.425 560.811 609.24C548.749 594.091 542.718 568.783 542.718 533.421V113.798C542.718 75.0511 551.12 46.392 567.958 27.8562C584.795 9.3203 606.375 0.0349075 632.764 0.0349075C675.957 0.0349075 697.571 26.1457 697.571 78.4022C697.571 140.188 691.959 202.568 680.733 265.471H616.798C643.711 208.188 661.246 166.893 669.403 141.62C677.526 116.347 681.605 96.6937 681.605 82.626H681.57Z" fill="#E4A52C"/>
<path d="M804.421 623.552H741.322V8.44761H804.421V623.552Z" fill="#E4A52C"/>
<path d="M1072.01 623.552H1001.32L979.424 450.83H916.325L905.378 623.552H829.66L922.216 93.5521L886.031 8.44761H969.349L1072.01 623.552ZM936.544 143.26L918.033 433.97H976.948L961.819 311.794L945.817 143.26H936.544Z" fill="#E4A52C"/>
<path d="M1164.57 631.965C1115.77 631.965 1091.36 605.854 1091.36 553.598C1091.36 483.399 1094.43 429.467 1100.64 391.837H1161.22C1143.27 426.116 1129.81 456.276 1120.82 482.421C1111.83 508.532 1107.36 528.918 1107.36 543.51C1107.36 555.308 1111.58 563.442 1119.98 567.945C1128.39 572.448 1143.27 574.682 1164.57 574.682C1177.47 574.682 1186.46 571.296 1191.48 564.559C1196.5 557.822 1199.05 548.257 1199.05 535.9C1199.05 511.744 1194.55 484.237 1185.59 453.309C1176.6 422.415 1163.14 381.399 1145.19 330.295C1125.56 276.363 1110.95 232.414 1101.44 198.414C1091.89 164.449 1087.14 133.696 1087.14 106.154C1087.14 70.7575 1096.24 44.2278 1114.48 26.5297C1132.71 8.83159 1156.13 0 1184.76 0C1227.95 0 1249.56 26.1108 1249.56 78.3673C1249.56 142.388 1246.46 193.527 1240.29 231.716H1184.76C1204.38 184.521 1217.42 151.394 1223.87 132.299C1230.32 113.205 1233.56 98.0551 1233.56 86.8149C1233.56 75.5747 1229.9 67.8602 1222.61 63.6363C1215.33 59.4125 1202.71 57.3181 1184.76 57.3181C1171.86 57.3181 1162.86 60.7041 1157.84 67.4413C1152.79 74.1784 1150.28 83.7431 1150.28 96.1003C1150.28 116.905 1154.91 143.574 1164.15 176.143C1173.43 208.712 1187.3 253.114 1205.81 309.28C1225.44 368.832 1239.73 414.875 1248.73 447.479C1257.69 480.048 1262.18 507.031 1262.18 528.36C1262.18 562.639 1253.05 588.47 1234.85 605.889C1216.62 623.308 1193.19 632 1164.57 632V631.965Z" fill="#E4A52C"/>
<path d="M1342.96 562.045L1348.01 568.783H1454.89V623.552H1277.35V622.715L1276.51 623.552L1381.69 69.9546L1376.63 63.2175H1295.86V8.44761H1448.17L1342.99 562.045H1342.96Z" fill="#E4A52C"/>
<path d="M1550.8 308.408V568.783H1641.68V623.552H1487.7V8.44761H1633.28V63.2175H1550.8V289.872H1610.55V308.408H1550.8Z" fill="#E4A52C"/>
<path d="M1865.49 69.9546C1846.42 75.5747 1831.26 87.6527 1820.06 106.189C1808.84 124.724 1795.1 155.338 1778.82 198.03L1771.26 218.242C1760.03 248.018 1752.75 270.777 1749.37 286.486L1755.26 292.385L1828.47 285.648L1884 623.518H1815.85L1784.72 385.064C1781.89 363.143 1778.96 346.736 1775.86 335.775C1772.76 324.814 1768.85 317.518 1764.08 313.853C1759.3 310.223 1752.99 308.931 1745.15 310.048C1743.47 320.73 1742.64 331.97 1742.64 343.769V623.518H1679.54V8.44761H1742.64V76.6917L1722.45 275.56L1730.86 277.235L1808.28 8.44761H1884V64.893L1865.49 69.9546Z" fill="#E4A52C"/>
</svg>
