<svg viewBox="0 0 1888 298" fill="none" xmlns="http://www.w3.org/2000/svg">
<path d="M-5.13623e-05 293.758L-1.46168e-05 83.5986L47.4108 83.5986L47.4108 119.309L49.8772 119.309C54.262 107.269 61.5244 97.8738 71.6642 91.1239C81.8041 84.2828 93.908 80.8622 107.976 80.8622C122.227 80.8622 134.239 84.3284 144.014 91.2607C153.879 98.1018 160.822 107.451 164.841 119.309L167.034 119.309C171.693 107.634 179.549 98.3299 190.602 91.3975C201.747 84.374 214.947 80.8622 230.203 80.8622C249.569 80.8622 265.372 86.9736 277.613 99.1964C289.854 111.419 295.975 129.252 295.975 152.694L295.975 293.758L246.235 293.758L246.235 160.356C246.235 147.312 242.763 137.78 235.821 131.76C228.878 125.649 220.382 122.593 210.334 122.593C198.367 122.593 189.004 126.333 182.244 133.813C175.575 141.201 172.241 150.824 172.241 162.682L172.241 293.758L123.597 293.758L123.597 158.304C123.597 147.449 120.308 138.784 113.731 132.307C107.245 125.831 98.7496 122.593 88.2443 122.593C81.119 122.593 74.6331 124.417 68.7867 128.066C62.9403 131.623 58.2814 136.686 54.8101 143.253C51.3388 149.73 49.6032 157.3 49.6032 165.966L49.6031 293.758L-5.13623e-05 293.758Z" fill="#222222"/>
<path d="M400.649 298C387.311 298 375.299 295.628 364.611 290.885C354.014 286.051 345.61 278.936 339.398 269.541C333.278 260.145 330.218 248.561 330.218 234.788C330.218 222.93 332.41 213.124 336.795 205.371C341.18 197.618 347.163 191.415 354.745 186.763C362.327 182.111 370.868 178.599 380.369 176.228C389.961 173.765 399.872 171.986 410.103 170.892C422.436 169.615 432.438 168.474 440.112 167.471C447.785 166.376 453.358 164.735 456.829 162.545C460.392 160.265 462.173 156.753 462.173 152.01L462.173 151.189C462.173 140.882 459.113 132.9 452.992 127.245C446.872 121.59 438.057 118.762 426.546 118.762C414.397 118.762 404.759 121.407 397.634 126.698C390.6 131.988 385.85 138.237 383.383 145.443L337.069 138.875C340.723 126.105 346.752 115.433 355.156 106.859C363.56 98.1931 373.837 91.7168 385.987 87.4297C398.136 83.0514 411.565 80.8622 426.272 80.8622C436.412 80.8623 446.506 82.0481 456.555 84.4196C466.604 86.7912 475.784 90.7135 484.097 96.1864C492.41 101.568 499.078 108.911 504.103 118.215C509.218 127.519 511.776 139.149 511.776 153.105L511.776 293.758L464.091 293.758L464.091 264.889L462.447 264.889C459.432 270.726 455.185 276.199 449.704 281.307C444.314 286.324 437.508 290.383 429.287 293.485C421.157 296.495 411.611 298 400.649 298ZM413.529 261.605C423.486 261.605 432.119 259.644 439.427 255.722C446.735 251.708 452.353 246.418 456.281 239.85C460.3 233.283 462.31 226.122 462.31 218.369L462.31 193.604C460.757 194.881 458.108 196.067 454.363 197.161C450.709 198.256 446.598 199.214 442.03 200.035C437.463 200.856 432.941 201.585 428.465 202.224C423.989 202.862 420.106 203.41 416.818 203.866C409.418 204.869 402.795 206.511 396.949 208.791C391.102 211.072 386.489 214.264 383.109 218.369C379.729 222.382 378.039 227.582 378.039 233.967C378.039 243.088 381.374 249.975 388.042 254.627C394.711 259.279 403.206 261.605 413.529 261.605Z" fill="#222222"/>
<path d="M645.175 297.863C624.165 297.863 606.123 293.257 591.05 284.044C576.069 274.831 564.513 262.107 556.383 245.87C548.344 229.543 544.324 210.753 544.324 189.499C544.324 168.155 548.435 149.319 556.657 132.992C564.878 116.573 576.48 103.803 591.461 94.6814C606.534 85.4686 624.347 80.8623 644.901 80.8623C661.984 80.8623 677.102 84.0092 690.256 90.303C703.502 96.5057 714.053 105.308 721.909 116.71C729.765 128.02 734.242 141.247 735.338 156.388L687.927 156.388C686.009 146.264 681.441 137.826 674.225 131.076C667.099 124.235 657.553 120.814 645.586 120.814C635.446 120.814 626.54 123.551 618.866 129.024C611.193 134.406 605.209 142.159 600.916 152.284C596.714 162.409 594.613 174.54 594.613 188.679C594.613 202.999 596.714 215.313 600.916 225.621C605.118 235.837 611.01 243.727 618.592 249.291C626.266 254.764 635.264 257.5 645.586 257.5C652.894 257.5 659.426 256.132 665.181 253.396C671.027 250.568 675.915 246.509 679.843 241.218C683.771 235.928 686.465 229.497 687.927 221.926L735.338 221.926C734.15 236.794 729.765 249.975 722.183 261.468C714.601 272.87 704.279 281.809 691.216 288.285C678.153 294.67 662.806 297.863 645.175 297.863Z" fill="#222222"/>
<path d="M772.962 293.758L772.962 83.5988L822.565 83.5988L822.565 293.758L772.962 293.758ZM797.9 53.7714C790.044 53.7714 783.284 51.1718 777.621 45.9725C771.957 40.6821 769.125 34.3426 769.125 26.9542C769.125 19.4746 771.957 13.1351 777.621 7.93584C783.284 2.64537 790.044 0.000138136 797.9 0.000139509C805.848 0.000140899 812.608 2.64538 818.18 7.93584C823.844 13.1351 826.676 19.4746 826.676 26.9542C826.676 34.3426 823.844 40.6821 818.18 45.9725C812.608 51.1718 805.848 53.7714 797.9 53.7714Z" fill="#222222"/>
<path d="M928.959 298C915.622 298 903.61 295.628 892.922 290.885C882.325 286.051 873.921 278.936 867.709 269.541C861.589 260.146 858.528 248.561 858.528 234.788C858.528 222.93 860.721 213.124 865.106 205.371C869.49 197.618 875.474 191.415 883.056 186.763C890.638 182.111 899.179 178.599 908.68 176.228C918.271 173.765 928.183 171.986 938.414 170.892C950.746 169.615 960.749 168.474 968.423 167.471C976.096 166.376 981.669 164.735 985.14 162.545C988.702 160.265 990.484 156.753 990.484 152.01L990.484 151.189C990.484 140.882 987.424 132.901 981.303 127.245C975.183 121.59 966.367 118.762 954.857 118.762C942.708 118.762 933.07 121.407 925.945 126.698C918.911 131.988 914.161 138.237 911.694 145.443L865.38 138.875C869.034 126.105 875.063 115.433 883.467 106.859C891.871 98.1932 902.148 91.7169 914.298 87.4298C926.447 83.0515 939.876 80.8623 954.583 80.8623C964.723 80.8623 974.817 82.0481 984.866 84.4197C994.914 86.7913 1004.1 90.7136 1012.41 96.1865C1020.72 101.568 1027.39 108.911 1032.41 118.215C1037.53 127.519 1040.09 139.149 1040.09 153.105L1040.09 293.758L992.402 293.758L992.402 264.889L990.758 264.889C987.743 270.727 983.496 276.199 978.015 281.307C972.625 286.324 965.819 290.383 957.598 293.485C949.468 296.495 939.921 298 928.959 298ZM941.84 261.605C951.797 261.605 960.43 259.644 967.738 255.722C975.046 251.708 980.664 246.418 984.592 239.85C988.611 233.283 990.621 226.122 990.621 218.369L990.621 193.604C989.068 194.881 986.419 196.067 982.673 197.162C979.019 198.256 974.909 199.214 970.341 200.035C965.774 200.856 961.252 201.586 956.776 202.224C952.299 202.863 948.417 203.41 945.128 203.866C937.729 204.869 931.106 206.511 925.26 208.791C919.413 211.072 914.8 214.264 911.42 218.369C908.04 222.383 906.35 227.582 906.35 233.967C906.35 243.088 909.685 249.975 916.353 254.627C923.022 259.279 931.517 261.605 941.84 261.605Z" fill="#222222"/>
<path d="M1248.03 139.149L1202.81 144.074C1201.53 139.514 1199.29 135.227 1196.1 131.213C1192.99 127.2 1188.79 123.962 1183.49 121.499C1178.19 119.036 1171.7 117.804 1164.03 117.804C1153.71 117.804 1145.03 120.039 1138 124.509C1131.05 128.978 1127.63 134.77 1127.72 141.885C1127.63 147.997 1129.87 152.968 1134.43 156.799C1139.09 160.63 1146.77 163.777 1157.45 166.24L1193.35 173.902C1213.27 178.189 1228.07 184.984 1237.75 194.288C1247.53 203.592 1252.46 215.77 1252.55 230.82C1252.46 244.046 1248.58 255.722 1240.9 265.847C1233.32 275.88 1222.77 283.725 1209.25 289.38C1195.73 295.035 1180.2 297.863 1162.66 297.863C1136.9 297.863 1116.16 292.481 1100.45 281.718C1084.74 270.863 1075.38 255.767 1072.36 236.43L1120.73 231.778C1122.92 241.264 1127.58 248.424 1134.71 253.259C1141.83 258.093 1151.11 260.51 1162.52 260.51C1174.31 260.51 1183.76 258.093 1190.89 253.259C1198.1 248.424 1201.71 242.45 1201.71 235.335C1201.71 229.315 1199.38 224.344 1194.72 220.421C1190.16 216.499 1183.03 213.489 1173.35 211.391L1137.45 203.866C1117.26 199.67 1102.32 192.601 1092.64 182.658C1082.96 172.625 1078.16 159.946 1078.25 144.622C1078.16 131.669 1081.68 120.45 1088.8 110.963C1096.02 101.386 1106.02 93.9973 1118.81 88.7981C1131.69 83.5076 1146.54 80.8624 1163.35 80.8624C1188.01 80.8624 1207.42 86.1073 1221.58 96.597C1235.83 107.087 1244.65 121.271 1248.03 139.149Z" fill="#222222"/>
<path d="M1275.18 293.758L1275.18 262.289L1383.7 126.424L1383.7 124.646L1278.74 124.646L1278.74 83.5988L1444.4 83.5989L1444.4 117.394L1341.09 250.933L1341.09 252.712L1447.97 252.712L1447.97 293.758L1275.18 293.758Z" fill="#222222"/>
<path d="M1569.31 297.863C1548.21 297.863 1529.98 293.485 1514.64 284.728C1499.38 275.88 1487.64 263.384 1479.42 247.239C1471.2 231.002 1467.09 211.893 1467.09 189.91C1467.09 168.292 1471.2 149.319 1479.42 132.992C1487.73 116.573 1499.33 103.803 1514.22 94.6815C1529.11 85.4688 1546.61 80.8624 1566.71 80.8624C1579.68 80.8625 1591.92 82.9604 1603.43 87.1563C1615.03 91.261 1625.26 97.646 1634.12 106.311C1643.07 114.977 1650.11 126.014 1655.22 139.423C1660.34 152.74 1662.9 168.611 1662.9 187.037L1662.9 202.224L1490.38 202.224L1490.38 168.839L1615.35 168.839C1615.26 159.353 1613.2 150.916 1609.18 143.527C1605.16 136.048 1599.55 130.164 1592.33 125.877C1585.2 121.59 1576.89 119.446 1567.39 119.446C1557.25 119.446 1548.34 121.909 1540.67 126.835C1533 131.669 1527.01 138.054 1522.72 145.99C1518.52 153.834 1516.37 162.454 1516.28 171.849L1516.28 200.993C1516.28 213.216 1518.52 223.705 1522.99 232.462C1527.47 241.127 1533.73 247.786 1541.77 252.438C1549.81 256.999 1559.21 259.279 1569.99 259.279C1577.21 259.279 1583.74 258.276 1589.59 256.269C1595.43 254.171 1600.5 251.115 1604.8 247.102C1609.09 243.088 1612.33 238.117 1614.53 232.188L1660.84 237.388C1657.92 249.61 1652.35 260.283 1644.12 269.404C1635.99 278.434 1625.58 285.458 1612.88 290.475C1600.18 295.4 1585.66 297.863 1569.31 297.863Z" fill="#222222"/>
<path d="M1741.79 227.81L1741.66 168.018L1749.6 168.018L1825.24 83.5989L1883.2 83.599L1790.16 187.037L1779.89 187.037L1741.79 227.81ZM1696.58 293.758L1696.58 13.5457L1746.18 13.5457L1746.18 293.758L1696.58 293.758ZM1828.67 293.758L1760.16 198.119L1793.59 163.23L1888 293.759L1828.67 293.758Z" fill="#222222"/>
</svg>
